<?xml version="1.0" encoding="UTF-8" standalone="no"?>
<svg
   xmlns:dc="http://purl.org/dc/elements/1.1/"
   xmlns:cc="http://creativecommons.org/ns#"
   xmlns:rdf="http://www.w3.org/1999/02/22-rdf-syntax-ns#"
   xmlns:svg="http://www.w3.org/2000/svg"
   xmlns="http://www.w3.org/2000/svg"
   viewBox="0 0 2159.6399 1318.1173"
   height="1318.1173"
   width="2159.6399"
   xml:space="preserve"
   id="svg2"
   version="1.1"><metadata
     id="metadata8"><rdf:RDF><cc:Work
         rdf:about=""><dc:format>image/svg+xml</dc:format><dc:type
           rdf:resource="http://purl.org/dc/dcmitype/StillImage" /></cc:Work></rdf:RDF></metadata><defs
     id="defs6"><clipPath
       id="clipPath18"
       clipPathUnits="userSpaceOnUse"><path
         id="path16"
         d="M 0,988.588 H 1619.726 V 0 H 0 Z" /></clipPath></defs><g
     transform="matrix(1.3333333,0,0,-1.3333333,0,1318.1173)"
     id="g10"><g
       id="g12"><g
         clip-path="url(#clipPath18)"
         id="g14"><g
           transform="translate(284.3137,609.8984)"
           id="g20"><path
             id="path22"
             style="fill:#000000;fill-opacity:1;fill-rule:nonzero;stroke:none"
             d="m 0,0 v 0 c -48.741,0 -67.743,57 -67.744,57.004 v 0 C -67.744,57.004 -48.743,0 0,0 M 131.358,-27.263 75.18,57.004 v 0 z M 287.723,7.178 c -1.221,0.053 -2.435,0.121 -3.664,0.156 1.229,-0.035 2.443,-0.103 3.664,-0.156 m 7.065,-0.409 c -1.215,0.088 -2.425,0.19 -3.647,0.26 1.222,-0.071 2.431,-0.172 3.647,-0.26 m 7.144,-0.623 c -1.27,0.13 -2.535,0.271 -3.814,0.381 1.279,-0.11 2.544,-0.251 3.814,-0.381 m 7.017,-0.818 c -1.312,0.173 -2.621,0.355 -3.944,0.507 1.323,-0.152 2.632,-0.335 3.944,-0.507 m 6.92,-1.007 c -1.354,0.217 -2.703,0.442 -4.067,0.638 1.364,-0.196 2.713,-0.421 4.067,-0.638 m 6.809,-1.188 c -1.388,0.263 -2.772,0.532 -4.173,0.772 1.401,-0.24 2.785,-0.509 4.173,-0.772 m -45.64,4.303 c 1.201,0 2.386,-0.035 3.578,-0.052 -1.284,0.018 -2.563,0.053 -3.856,0.051 0.084,0 0.193,0.001 0.278,0.001 m 27.587,110.173 c 2.536,-4.414 5.314,-8.69 8.315,-12.85 -3.001,4.16 -5.779,8.436 -8.315,12.85 m -9.728,20.864 c 1.773,-4.876 3.814,-9.581 6.105,-14.137 -2.291,4.556 -4.332,9.261 -6.105,14.137 m -8.223,49.063 v 0 c 0,-12.186 1.291,-23.429 3.727,-33.904 -2.436,10.475 -3.727,21.718 -3.727,33.904 m 0.22,8.687 c -0.142,-2.846 -0.22,-5.737 -0.22,-8.684 0,2.947 0.078,5.838 0.22,8.684 m 0.638,8.385 c -0.185,-1.823 -0.308,-3.693 -0.434,-5.561 0.126,1.869 0.249,3.738 0.434,5.561 m 1.043,8.091 c -0.247,-1.589 -0.442,-3.218 -0.642,-4.843 0.2,1.625 0.395,3.254 0.642,4.843 m 1.437,7.785 c -0.311,-1.461 -0.579,-2.955 -0.847,-4.45 0.268,1.495 0.536,2.989 0.847,4.45 m 1.818,7.491 c -0.373,-1.369 -0.712,-2.765 -1.045,-4.164 0.333,1.399 0.672,2.795 1.045,4.164 m 2.189,7.199 c -0.435,-1.297 -0.843,-2.617 -1.243,-3.944 0.4,1.328 0.808,2.646 1.243,3.944 m 5.442,13.516 c -0.558,-1.18 -1.103,-2.373 -1.628,-3.582 0.525,1.21 1.069,2.402 1.628,3.582 m 3.235,6.328 c -0.622,-1.131 -1.235,-2.27 -1.824,-3.431 0.589,1.161 1.202,2.3 1.824,3.431 m 3.567,6.047 c -0.688,-1.088 -1.371,-2.18 -2.026,-3.299 0.655,1.119 1.338,2.21 2.026,3.299 m -9.696,-18.986 c -0.497,-1.237 -0.975,-2.491 -1.438,-3.758 0.463,1.267 0.941,2.521 1.438,3.758 m 17.856,30.323 c -0.855,-1.047 -1.714,-2.09 -2.535,-3.171 0.821,1.081 1.68,2.124 2.535,3.171 m 4.75,5.462 c -1.019,-1.099 -2.041,-2.197 -3.02,-3.339 0.979,1.142 2.001,2.24 3.02,3.339 m -9.008,-11.014 c -0.761,-1.058 -1.524,-2.114 -2.252,-3.204 0.729,1.09 1.491,2.146 2.252,3.204 m 20.373,21.783 c -1.406,-1.161 -2.771,-2.369 -4.123,-3.593 1.352,1.224 2.717,2.432 4.123,3.593 m 5.306,4.134 c -1.131,-0.833 -2.228,-1.709 -3.329,-2.58 1.101,0.871 2.198,1.746 3.329,2.58 m -10.37,-8.552 c -1.637,-1.514 -3.23,-3.08 -4.782,-4.69 1.552,1.61 3.145,3.176 4.782,4.69 m 93.144,36.588 c 1.912,0.12 3.829,0.23 5.756,0.294 -1.927,-0.064 -3.844,-0.174 -5.756,-0.294 m 13.094,0.401 c -1.556,0.005 -3.104,-0.028 -4.654,-0.06 1.355,0.028 2.707,0.072 4.067,0.072 0.195,0 0.392,-0.011 0.587,-0.012 m 8.008,-0.173 c -0.881,0.036 -1.758,0.039 -2.638,0.065 0.88,-0.026 1.757,-0.029 2.638,-0.065 M 562.69,134.864 c -0.4,-0.493 -0.805,-0.969 -1.215,-1.44 0.41,0.471 0.816,0.948 1.215,1.44 m 2.971,3.964 c -0.354,-0.517 -0.722,-1.004 -1.087,-1.504 0.365,0.499 0.733,0.988 1.087,1.504 m 2.749,4.336 c -0.261,-0.451 -0.542,-0.868 -0.81,-1.308 0.268,0.439 0.55,0.857 0.81,1.308 m 2.804,5.378 c -0.105,-0.224 -0.198,-0.464 -0.306,-0.686 0.108,0.222 0.201,0.462 0.306,0.686 m 2.564,6.149 c -0.222,-0.599 -0.43,-1.21 -0.663,-1.797 0.233,0.586 0.441,1.199 0.663,1.797 m 1.882,5.708 c -0.208,-0.716 -0.411,-1.433 -0.635,-2.135 0.224,0.701 0.427,1.419 0.635,2.135 m 1.475,5.855 c -0.166,-0.773 -0.34,-1.537 -0.525,-2.297 0.184,0.76 0.359,1.525 0.525,2.297 m 1.081,6.058 c -0.11,-0.781 -0.245,-1.545 -0.375,-2.314 0.13,0.769 0.265,1.534 0.375,2.314 m 0.673,6.268 c -0.049,-0.687 -0.134,-1.354 -0.197,-2.033 0.063,0.679 0.148,1.346 0.197,2.033 m -20.644,-48.576 c 0.425,0.41 0.843,0.842 1.26,1.273 -0.417,-0.432 -0.835,-0.863 -1.26,-1.273 m -3.355,-2.961 c 0.405,0.322 0.8,0.681 1.199,1.022 -0.4,-0.342 -0.794,-0.699 -1.199,-1.022 m -3.458,-2.494 c 0.259,0.165 0.51,0.367 0.766,0.54 -0.256,-0.173 -0.507,-0.375 -0.766,-0.54 m -4.49,-2.399 c 0.315,0.142 0.634,0.252 0.949,0.406 -0.315,-0.154 -0.634,-0.264 -0.949,-0.406 m -3.976,-1.459 c 0.44,0.126 0.882,0.236 1.321,0.386 -0.44,-0.15 -0.88,-0.259 -1.321,-0.386 m -3.741,-0.79 c 0.475,0.063 0.95,0.129 1.426,0.22 -0.476,-0.092 -0.95,-0.157 -1.426,-0.22 m -3.856,-0.206 c 0.538,-0.019 1.079,-10e-4 1.621,0.018 -0.272,-0.009 -0.547,-0.068 -0.818,-0.068 -0.269,0 -0.535,0.041 -0.803,0.05 m -3.129,0.348 c 0.656,-0.12 1.313,-0.217 1.975,-0.275 -0.662,0.058 -1.319,0.155 -1.975,0.275 m -3.283,0.875 c 0.728,-0.258 1.46,-0.49 2.201,-0.666 -0.741,0.176 -1.473,0.408 -2.201,0.666 m -3.665,1.648 c 0.948,-0.542 1.912,-1.003 2.888,-1.39 -0.976,0.387 -1.939,0.848 -2.888,1.39 m -2.789,1.881 c 0.718,-0.551 1.449,-1.039 2.19,-1.491 -0.741,0.452 -1.472,0.94 -2.19,1.491 m -2.692,2.381 c 0.576,-0.572 1.164,-1.099 1.758,-1.6 -0.595,0.501 -1.182,1.028 -1.758,1.6 m -2.595,2.931 c 0.533,-0.673 1.074,-1.316 1.627,-1.917 -0.553,0.601 -1.094,1.244 -1.627,1.917 m -2.558,3.648 c 0.541,-0.868 1.092,-1.711 1.661,-2.492 -0.569,0.781 -1.119,1.624 -1.661,2.492 m -2.839,5.164 c 0.685,-1.457 1.408,-2.812 2.156,-4.09 -0.748,1.278 -1.47,2.633 -2.156,4.09 m -1.946,4.66 c 0.532,-1.412 1.091,-2.748 1.674,-4.024 -0.582,1.276 -1.142,2.612 -1.674,4.024 m -1.743,5.248 c 0.363,-1.225 0.749,-2.394 1.147,-3.533 -0.398,1.14 -0.784,2.308 -1.147,3.533 m -1.527,5.895 c 0.295,-1.299 0.607,-2.562 0.936,-3.781 -0.329,1.219 -0.641,2.481 -0.936,3.781 m -1.316,6.764 c 0.252,-1.525 0.516,-3.023 0.809,-4.455 -0.293,1.432 -0.557,2.93 -0.809,4.455 m -2.628,18.958 c 0.197,-1.041 0.363,-2.103 0.531,-3.164 -0.168,1.061 -0.334,2.123 -0.531,3.164 m -0.981,4.605 c 0.216,-0.914 0.405,-1.846 0.599,-2.776 -0.194,0.93 -0.383,1.862 -0.599,2.776 m -1.168,4.469 c 0.241,-0.85 0.462,-1.715 0.684,-2.58 -0.222,0.865 -0.442,1.731 -0.684,2.58 m -1.349,4.334 c 0.27,-0.801 0.52,-1.617 0.771,-2.433 -0.251,0.816 -0.501,1.632 -0.771,2.433 m -1.522,4.201 c 0.297,-0.766 0.579,-1.544 0.858,-2.324 -0.279,0.78 -0.561,1.558 -0.858,2.324 m 5.807,-22.343 c 0.23,-1.601 0.428,-3.222 0.589,-4.866 0.246,-2.51 0.55,-4.893 0.891,-7.198 -0.341,2.305 -0.645,4.688 -0.891,7.198 -0.161,1.644 -0.359,3.265 -0.589,4.866 m -9.351,30.336 c 0.355,-0.71 0.7,-1.429 1.04,-2.154 -0.34,0.725 -0.685,1.444 -1.04,2.154 m -2.009,3.794 c 0.384,-0.686 0.76,-1.38 1.129,-2.081 -0.369,0.701 -0.745,1.395 -1.129,2.081 m -2.16,3.654 c 0.414,-0.665 0.822,-1.335 1.221,-2.014 -0.399,0.679 -0.807,1.349 -1.221,2.014 m -2.305,3.518 c 0.445,-0.646 0.886,-1.296 1.317,-1.957 -0.431,0.661 -0.872,1.311 -1.317,1.957 m -2.444,3.376 c 0.477,-0.626 0.95,-1.256 1.413,-1.899 -0.463,0.643 -0.936,1.272 -1.413,1.899 m -2.587,3.247 c 0.512,-0.613 1.023,-1.227 1.521,-1.856 -0.498,0.629 -1.009,1.243 -1.521,1.856 m -2.732,3.121 c 0.556,-0.606 1.112,-1.212 1.653,-1.836 -0.541,0.624 -1.097,1.23 -1.653,1.836 m -6.025,5.976 c 0.716,-0.645 1.431,-1.294 2.131,-1.966 -0.7,0.672 -1.414,1.321 -2.131,1.966 m 22.114,-30.611 c 0.326,-0.737 0.64,-1.485 0.95,-2.236 -0.31,0.751 -0.624,1.499 -0.95,2.236 m -17.154,25.795 c -0.598,0.63 -1.211,1.238 -1.825,1.846 0.614,-0.608 1.227,-1.216 1.825,-1.846 m -15.163,12.765 c 0.844,-0.562 1.674,-1.15 2.502,-1.744 -0.828,0.594 -1.659,1.182 -2.502,1.744 m -3.287,2.088 c 0.737,-0.446 1.463,-0.915 2.188,-1.384 -0.725,0.469 -1.451,0.938 -2.188,1.384 m -3.36,1.935 c 0.706,-0.387 1.402,-0.793 2.099,-1.199 -0.697,0.406 -1.394,0.813 -2.099,1.199 m 9.854,-6.263 c 2.125,-1.556 4.193,-3.215 6.194,-4.975 -2.001,1.76 -4.069,3.419 -6.194,4.975 m -16.751,9.659 c 0.682,-0.301 1.359,-0.616 2.036,-0.935 -0.677,0.318 -1.354,0.634 -2.036,0.935 m -3.527,1.459 c 0.681,-0.264 1.357,-0.543 2.033,-0.825 -0.676,0.282 -1.352,0.561 -2.033,0.825 m -3.573,1.302 c 0.681,-0.231 1.358,-0.474 2.033,-0.722 -0.675,0.248 -1.352,0.491 -2.033,0.722 m -3.615,1.142 c 0.683,-0.199 1.363,-0.408 2.043,-0.625 -0.68,0.217 -1.36,0.426 -2.043,0.625 m -3.65,0.98 c 0.689,-0.169 1.378,-0.345 2.064,-0.532 -0.686,0.187 -1.375,0.363 -2.064,0.532 m -3.666,0.815 c 0.691,-0.138 1.382,-0.281 2.07,-0.436 -0.688,0.155 -1.379,0.298 -2.07,0.436 m -3.695,0.651 c 0.696,-0.107 1.391,-0.216 2.085,-0.341 -0.694,0.125 -1.389,0.235 -2.085,0.341 m -3.706,0.485 c 0.7,-0.076 1.4,-0.152 2.1,-0.246 -0.7,0.094 -1.4,0.17 -2.1,0.246 m -3.739,0.318 c 0.714,-0.044 1.428,-0.088 2.141,-0.151 -0.713,0.063 -1.427,0.107 -2.141,0.151 m -3.774,0.147 c 0.741,-0.012 1.482,-0.021 2.224,-0.053 -0.742,0.032 -1.483,0.041 -2.224,0.053 m 36.427,-8.921 c 0.687,-0.339 1.367,-0.695 2.048,-1.053 -0.681,0.358 -1.361,0.714 -2.048,1.053 m -70.412,1.468 c -1.78,-0.881 -3.531,-1.829 -5.241,-2.871 1.71,1.042 3.461,1.99 5.241,2.871 m 6.113,2.67 c -1.81,-0.689 -3.596,-1.447 -5.349,-2.288 1.753,0.841 3.539,1.599 5.349,2.288 m 6.366,2.088 c -1.85,-0.512 -3.679,-1.095 -5.483,-1.754 1.804,0.659 3.633,1.242 5.483,1.754 m 6.566,1.498 c -1.896,-0.341 -3.776,-0.76 -5.637,-1.248 1.861,0.488 3.741,0.907 5.637,1.248 m 6.722,0.906 c -1.955,-0.174 -3.898,-0.432 -5.826,-0.755 1.929,0.323 3.87,0.581 5.826,0.755 m -6.293,64.372 c 1.687,0.252 3.39,0.461 5.093,0.667 -1.703,-0.206 -3.407,-0.415 -5.093,-0.667 m -7.073,-1.207 c 1.437,0.275 2.89,0.512 4.34,0.751 -1.45,-0.239 -2.903,-0.476 -4.34,-0.751 m -6.958,-1.48 c 1.339,0.313 2.689,0.594 4.041,0.876 -1.352,-0.282 -2.703,-0.563 -4.041,-0.876 m -6.834,-1.757 c 1.269,0.355 2.551,0.682 3.834,1.008 -1.283,-0.326 -2.565,-0.653 -3.834,-1.008 m -6.701,-2.034 c 1.22,0.399 2.45,0.776 3.684,1.147 -1.234,-0.371 -2.464,-0.748 -3.684,-1.147 m -6.564,-2.317 c 1.182,0.447 2.372,0.876 3.569,1.295 -1.197,-0.419 -2.388,-0.848 -3.569,-1.295 m 3.688,-69.504 c 1.677,1.272 3.407,2.441 5.17,3.539 -1.763,-1.098 -3.493,-2.267 -5.17,-3.539 m 44.32,-168.025 c -4.147,2.78 -8.228,5.569 -12.196,8.379 3.968,-2.81 8.049,-5.599 12.196,-8.379 m 37.516,-24.327 c -2.535,1.635 -5.069,3.266 -7.598,4.888 2.529,-1.622 5.063,-3.252 7.598,-4.888 m 32.49,-21.854 c -2.485,1.776 -4.984,3.54 -7.508,5.283 2.524,-1.743 5.023,-3.507 7.508,-5.283 m 16.124,-12.101 c 2.399,-1.899 4.774,-3.813 7.095,-5.763 -2.321,1.95 -4.697,3.864 -7.095,5.763 m 64.776,-119.972 c 0.053,1.253 0.091,2.54 0.124,3.836 -0.033,-1.296 -0.071,-2.583 -0.124,-3.836 m -0.235,-4.466 c 0.057,0.903 0.1,1.838 0.146,2.765 -0.046,-0.927 -0.089,-1.862 -0.146,-2.765 m -0.318,-4.282 c 0.068,0.796 0.123,1.622 0.182,2.438 -0.059,-0.816 -0.114,-1.642 -0.182,-2.438 m -0.398,-4.082 c 0.079,0.716 0.144,1.46 0.216,2.194 -0.072,-0.734 -0.138,-1.478 -0.216,-2.194 m -0.48,-3.914 c 0.09,0.664 0.169,1.354 0.252,2.035 -0.083,-0.681 -0.162,-1.371 -0.252,-2.035 m -0.558,-3.727 c 0.105,0.633 0.197,1.291 0.294,1.941 -0.097,-0.65 -0.189,-1.308 -0.294,-1.941 m -0.632,-3.54 c 0.114,0.587 0.218,1.197 0.326,1.8 -0.108,-0.603 -0.212,-1.213 -0.326,-1.8 m -0.708,-3.37 c 0.123,0.543 0.237,1.106 0.354,1.663 -0.117,-0.557 -0.231,-1.121 -0.354,-1.663 m -0.782,-3.204 c 0.135,0.515 0.262,1.051 0.391,1.58 -0.129,-0.529 -0.256,-1.064 -0.391,-1.58 m -0.854,-3.029 c 0.147,0.487 0.286,0.992 0.427,1.493 -0.141,-0.501 -0.28,-1.006 -0.427,-1.493 m -0.922,-2.858 c 0.156,0.452 0.305,0.921 0.455,1.387 -0.15,-0.466 -0.299,-0.935 -0.455,-1.387 m -0.992,-2.7 c 0.165,0.423 0.324,0.862 0.485,1.297 -0.161,-0.435 -0.32,-0.874 -0.485,-1.297 m -1.061,-2.54 c 0.177,0.398 0.348,0.81 0.519,1.221 -0.171,-0.411 -0.342,-0.823 -0.519,-1.221 m -1.122,-2.374 c 0.186,0.368 0.365,0.75 0.545,1.13 -0.18,-0.38 -0.359,-0.762 -0.545,-1.13 m -1.188,-2.225 c 0.193,0.341 0.382,0.694 0.571,1.047 -0.189,-0.353 -0.378,-0.706 -0.571,-1.047 m -1.253,-2.075 c 0.205,0.319 0.405,0.649 0.605,0.98 -0.2,-0.331 -0.4,-0.661 -0.605,-0.98 m -1.313,-1.924 c 0.215,0.297 0.426,0.604 0.637,0.912 -0.211,-0.308 -0.422,-0.615 -0.637,-0.912 m -1.373,-1.776 c 0.226,0.275 0.447,0.558 0.669,0.844 -0.221,-0.286 -0.443,-0.57 -0.669,-0.844 m -1.426,-1.629 c 0.233,0.25 0.462,0.508 0.692,0.768 -0.23,-0.26 -0.459,-0.518 -0.692,-0.768 m -1.489,-1.493 c 0.243,0.229 0.484,0.465 0.724,0.704 -0.24,-0.239 -0.481,-0.475 -0.724,-0.704 m -1.542,-1.353 c 0.254,0.208 0.506,0.422 0.756,0.641 -0.25,-0.219 -0.502,-0.433 -0.756,-0.641 m -1.597,-1.218 c 0.264,0.187 0.527,0.38 0.787,0.579 -0.26,-0.199 -0.523,-0.392 -0.787,-0.579 m -1.649,-1.086 c 0.276,0.168 0.55,0.341 0.822,0.52 -0.272,-0.179 -0.546,-0.352 -0.822,-0.52 m -1.697,-0.953 c 0.286,0.147 0.57,0.299 0.852,0.457 -0.282,-0.158 -0.566,-0.31 -0.852,-0.457 m -1.745,-0.826 c 0.294,0.127 0.588,0.257 0.878,0.394 -0.29,-0.137 -0.584,-0.267 -0.878,-0.394 m -1.796,-0.703 c 0.305,0.107 0.609,0.218 0.911,0.336 -0.301,-0.119 -0.605,-0.229 -0.911,-0.336 m -1.841,-0.581 c 0.316,0.088 0.632,0.179 0.945,0.278 -0.313,-0.099 -0.629,-0.19 -0.945,-0.278 m -1.884,-0.461 c 0.326,0.069 0.651,0.139 0.973,0.218 -0.322,-0.079 -0.647,-0.149 -0.973,-0.218 m -1.932,-0.345 c 0.338,0.05 0.676,0.1 1.011,0.16 -0.335,-0.06 -0.674,-0.11 -1.011,-0.16 m -1.967,-0.231 c 0.349,0.031 0.696,0.062 1.041,0.103 -0.345,-0.041 -0.693,-0.072 -1.041,-0.103 m -2.006,-0.12 c 0.357,0.012 0.713,0.023 1.066,0.045 -0.353,-0.022 -0.709,-0.033 -1.066,-0.045 m -565.306,-17.26 c -28.884,4.1 -50.172,12.014 -65.726,22.243 15.554,-10.229 36.842,-18.144 65.726,-22.243 M 331.633,1.29 c 1.526,-0.346 3.035,-0.721 4.544,-1.093 -1.509,0.372 -3.018,0.746 -4.544,1.093 m -6.516,1.39 c 1.437,-0.287 2.858,-0.602 4.281,-0.912 -1.423,0.31 -2.844,0.625 -4.281,0.912 m 11.507,-103.175 c -3.926,-0.014 -7.897,-0.096 -11.947,-0.295 -49.893,-2.458 -86.038,-11.254 -115.66,-22.397 v 0 c 29.622,11.143 65.766,19.939 115.66,22.397 4.049,0.199 8.021,0.281 11.947,0.295 m 10.033,-0.152 c -1.499,0.053 -3.03,0.061 -4.547,0.088 1.517,-0.027 3.047,-0.035 4.547,-0.088 m 9.916,-0.542 c -1.429,0.107 -2.891,0.168 -4.337,0.252 1.446,-0.083 2.908,-0.145 4.337,-0.252 m 9.627,-0.903 c -1.342,0.153 -2.721,0.261 -4.079,0.393 1.358,-0.131 2.737,-0.24 4.079,-0.393 m 9.347,-1.237 c -1.208,0.183 -2.452,0.325 -3.675,0.493 1.223,-0.168 2.467,-0.31 3.675,-0.493 m 9.07,-1.548 c -0.915,0.174 -1.863,0.314 -2.787,0.479 0.924,-0.165 1.872,-0.305 2.787,-0.479 m 11.49,-2.494 c -0.919,0.22 -1.814,0.46 -2.744,0.671 0.93,-0.211 1.825,-0.451 2.744,-0.671 m 9.286,-2.405 c -1.175,0.328 -2.329,0.672 -3.521,0.986 1.192,-0.314 2.345,-0.658 3.521,-0.986 m 8.382,-2.489 c -1.222,0.385 -2.426,0.783 -3.666,1.154 1.24,-0.371 2.444,-0.769 3.666,-1.154 m 7.944,-2.643 c -1.213,0.425 -2.412,0.859 -3.646,1.272 1.234,-0.413 2.433,-0.847 3.646,-1.272 m 7.644,-2.806 c -1.193,0.459 -2.377,0.924 -3.591,1.371 1.215,-0.448 2.397,-0.912 3.591,-1.371 m 7.36,-2.945 c -1.175,0.49 -2.342,0.983 -3.538,1.463 1.197,-0.481 2.363,-0.973 3.538,-1.463 m 7.04,-3.041 c -1.136,0.508 -2.266,1.018 -3.422,1.519 1.157,-0.501 2.286,-1.011 3.422,-1.519 m 6.778,-3.134 c -1.096,0.524 -2.19,1.047 -3.309,1.565 1.12,-0.518 2.213,-1.041 3.309,-1.565 m 6.5,-3.19 c -1.056,0.533 -2.112,1.066 -3.189,1.596 1.078,-0.531 2.133,-1.063 3.189,-1.596 m 6.246,-3.234 c -1.015,0.54 -2.035,1.078 -3.073,1.616 1.039,-0.538 2.057,-1.076 3.073,-1.616 m 5.977,-3.241 c -0.977,0.542 -1.961,1.083 -2.96,1.626 1,-0.543 1.982,-1.084 2.96,-1.626 m 5.739,-3.24 c -0.946,0.544 -1.901,1.089 -2.869,1.636 0.969,-0.547 1.922,-1.091 2.869,-1.636 m 5.473,-3.197 c -0.918,0.545 -1.851,1.093 -2.793,1.644 0.943,-0.551 1.873,-1.098 2.793,-1.644 M 338.048,-0.255 c 1.626,-0.415 3.235,-0.856 4.843,-1.3 -1.608,0.444 -3.217,0.885 -4.843,1.3 m 18.026,-5.309 c -1.813,0.605 -3.635,1.199 -5.474,1.768 1.839,-0.569 3.661,-1.163 5.474,-1.768 m -6.68,2.126 c -1.666,0.507 -3.337,1.009 -5.024,1.485 1.687,-0.476 3.358,-0.978 5.024,-1.485 m 12.99,-4.317 c -1.875,0.678 -3.76,1.341 -5.663,1.982 1.903,-0.641 3.788,-1.304 5.663,-1.982 m -3.899,66.752 c -4.493,3.583 -8.836,7.194 -13.01,10.856 4.174,-3.662 8.517,-7.273 13.01,-10.856 m -2.628,245.858 c 1.115,0.549 2.236,1.089 3.369,1.609 -1.133,-0.52 -2.254,-1.06 -3.369,-1.609 m -6.073,-3.177 c 1.092,0.606 2.185,1.208 3.296,1.785 -1.111,-0.577 -2.204,-1.179 -3.296,-1.785 M 343.89,298.2 c 1.071,0.67 2.141,1.339 3.234,1.979 -1.093,-0.64 -2.164,-1.309 -3.234,-1.979 m -5.738,-3.807 c 1.068,0.75 2.132,1.504 3.224,2.222 -1.092,-0.718 -2.156,-1.472 -3.224,-2.222 m 23.946,13.347 c 1.147,0.496 2.301,0.98 3.465,1.448 -1.164,-0.468 -2.319,-0.952 -3.465,-1.448 m 0.174,-76.13 c 1.45,1.634 2.946,3.196 4.503,4.654 -1.557,-1.458 -3.053,-3.02 -4.503,-4.654 m 4.777,4.898 c 1.584,1.467 3.218,2.847 4.902,4.135 -1.684,-1.288 -3.319,-2.668 -4.902,-4.135 m -9.264,-10.504 c 1.279,1.767 2.605,3.463 3.995,5.063 -1.39,-1.6 -2.717,-3.296 -3.995,-5.063 m -4.101,-6.305 c 1.122,1.923 2.298,3.772 3.537,5.532 -1.239,-1.76 -2.415,-3.609 -3.537,-5.532 m -3.638,-7.001 c 0.967,2.1 1.999,4.121 3.093,6.059 -1.094,-1.938 -2.126,-3.959 -3.093,-6.059 m -3.121,-7.702 c 0.812,2.303 1.698,4.516 2.648,6.653 -0.95,-2.137 -1.836,-4.35 -2.648,-6.653 m -2.549,-8.414 c 0.649,2.539 1.386,4.98 2.187,7.345 -0.801,-2.365 -1.538,-4.806 -2.187,-7.345 m -1.923,-9.118 c 0.473,2.82 1.049,5.532 1.696,8.167 -0.647,-2.635 -1.223,-5.347 -1.696,-8.167 m 6.844,-50.514 c -0.775,1.512 -1.502,3.04 -2.178,4.586 0.676,-1.546 1.402,-3.074 2.178,-4.586 m -8.097,40.672 c 0.278,3.169 0.674,6.219 1.154,9.183 -0.48,-2.964 -0.876,-6.014 -1.154,-9.183 -0.155,-1.768 -0.25,-3.515 -0.284,-5.239 0.034,1.725 0.129,3.471 0.284,5.239 m 118.965,-190.84 c 5.68,-4.131 10.898,-8.226 15.69,-12.274 -4.792,4.048 -10.01,8.143 -15.69,12.274 m 28.825,-24.265 c 3.976,-3.942 7.562,-7.825 10.792,-11.638 -3.23,3.813 -6.816,7.696 -10.792,11.638 m 19.453,-22.852 c 2.557,-3.659 4.792,-7.236 6.745,-10.72 -1.953,3.484 -4.188,7.061 -6.745,10.72 m 11.786,-20.876 c 1.42,-3.284 2.592,-6.462 3.55,-9.522 -0.958,3.06 -2.13,6.238 -3.55,9.522 M 362.757,-7.886 c 98.913,-35.958 157.507,-123.101 160.853,-128.172 -3.346,5.07 -61.946,92.213 -160.853,128.172 m 122.918,-138.171 c -0.875,0.532 -1.766,1.069 -2.665,1.609 0.9,-0.541 1.788,-1.076 2.665,-1.609 m 5.013,-3.072 c -0.848,0.525 -1.718,1.059 -2.591,1.594 0.876,-0.538 1.74,-1.067 2.591,-1.594 m 5.176,-3.214 c -0.96,0.599 -1.964,1.222 -2.959,1.841 1.005,-0.625 1.99,-1.236 2.959,-1.841 m 5.875,-3.658 c -1.028,0.638 -2.079,1.291 -3.155,1.961 1.084,-0.675 2.12,-1.318 3.155,-1.961 m 3.994,-2.457 c -0.767,0.467 -1.539,0.938 -2.336,1.43 0.8,-0.494 1.566,-0.961 2.336,-1.43 m 3.773,-2.266 c -0.682,0.403 -1.366,0.806 -2.075,1.233 0.711,-0.428 1.391,-0.829 2.075,-1.233 m 3.543,-2.039 c -0.632,0.354 -1.263,0.704 -1.921,1.085 0.66,-0.381 1.288,-0.73 1.921,-1.085 m 3.307,-1.781 c -0.593,0.306 -1.181,0.605 -1.802,0.942 0.621,-0.337 1.209,-0.636 1.802,-0.942 m 3.061,-1.487 c -0.558,0.253 -1.11,0.498 -1.695,0.785 0.586,-0.288 1.137,-0.532 1.695,-0.785 m 2.836,-1.172 c -0.531,0.195 -1.053,0.38 -1.612,0.616 0.559,-0.236 1.081,-0.421 1.612,-0.616 m 2.689,-0.843 c -0.533,0.133 -1.063,0.26 -1.632,0.447 0.57,-0.187 1.099,-0.314 1.632,-0.447 m 2.386,46.97 c -0.177,-1.935 -0.425,-3.705 -0.709,-5.299 0.284,1.594 0.532,3.364 0.709,5.299 m 2.088,-47.487 c -0.5,0 -1,0.01 -1.507,0.028 -0.685,0.026 -1.413,0.122 -2.178,0.279 0.765,-0.157 1.493,-0.253 2.178,-0.278 0.604,-0.023 1.201,-0.025 1.795,-0.021 -0.096,-0.001 -0.192,-0.008 -0.288,-0.008 m -113.67,423.636 c -2.028,-0.003 -4.049,-0.097 -6.061,-0.257 2.012,0.16 4.033,0.254 6.061,0.257 m -5.951,64.991 c 2.401,0.263 4.816,0.482 7.245,0.655 -2.429,-0.173 -4.844,-0.392 -7.245,-0.655 m 861.642,-694.689 c -0.121,0.13 -0.246,0.259 -0.37,0.387 -20.952,21.551 -46.009,19.993 -60.958,17.751 -0.571,5.032 -1.03,12.722 -1.03,24.434 v 22.016 c 31.384,2.975 53.523,27.202 53.523,59.792 0,33.062 -22.139,57.64 -53.523,60.658 v 0.698 c 0,37.346 -27.105,64.453 -64.453,64.453 -38.101,0 -65.757,-27.107 -65.757,-64.453 v -4.325 c -4.842,-1.85 -9.291,-4.322 -13.333,-7.278 -10.474,7.13 -23.44,11.218 -37.977,11.218 -11.615,0 -21.758,-2.116 -30.839,-6.452 -14.992,7.377 -31.519,11.239 -48.356,11.239 -37.429,0 -68.808,-17.629 -89.912,-47.507 -16.917,29.692 -47.868,47.507 -87.206,47.507 -21.922,0 -42.822,-5.639 -61.2,-16.277 -11.871,9.895 -26.152,11.49 -34.098,11.49 H 641.57 c -12.319,0 -23.424,-3.667 -32.421,-9.97 -8.998,6.303 -20.102,9.97 -32.421,9.97 h -9.052 c 6.349,4.771 11.914,10.853 16.504,18.159 10.418,16.579 15.814,39.338 16.497,69.577 2.123,94.016 -76.444,144.376 -139.574,184.841 -55.919,35.843 -89.672,59.882 -86.909,91.429 2.629,30.015 17.829,47.228 41.703,47.227 24.758,-0.001 51.66,-18.787 55.174,-54.69 7.333,-74.922 51.683,-80.745 65.101,-80.745 41.239,0 76.079,45.123 76.079,98.533 0,81.414 -77.137,161.728 -161.837,168.504 -6.433,0.515 -12.922,0.776 -19.289,0.776 -47.251,0 -90.559,-14.341 -121.948,-40.381 -36.39,-30.188 -55.624,-73.903 -55.624,-126.42 0,-70.64 35.694,-115.201 83.059,-153.365 -18.772,4.07 -38.649,6.385 -59.574,6.385 h -0.344 C 211.583,40.483 168.19,28.113 141.908,16.621 L 102.738,75.376 69.515,125.211 45.178,71.04 C 44.227,69.141 25.73,33.121 0,33.121 c -23.802,0 -36.209,34.014 -36.324,34.357 l -19.555,58.668 -37.997,-48.792 c -0.785,-1.009 -19.465,-25.064 -38.344,-55.422 -27.822,-44.736 -41.346,-79.204 -41.346,-105.373 0,-39.24 12.826,-71.08 38.123,-94.635 3.579,-3.332 7.403,-6.444 11.414,-9.392 -66.498,-13.71 -112.181,-73.424 -112.181,-151.983 0,-86.515 54.923,-149.307 130.594,-149.307 39.957,0 76.104,17.53 99.551,46.598 20.293,-28.867 48.879,-46.598 81.045,-46.598 14.897,0 29.793,4.226 43.661,12.199 7.668,-4.801 16.926,-7.412 27.266,-7.412 h 37.859 c 23.547,0 42.76,13.266 50.987,33.112 1.003,0.015 2,0.02 3.004,0.04 4.103,0.079 8.182,0.204 12.25,0.348 27.512,-28.754 63.34,-33.5 83.892,-33.5 25.358,0 49.306,6.661 65.705,18.276 0.377,0.266 0.747,0.54 1.111,0.822 0.28,0.217 0.53,0.439 0.803,0.657 0.204,-0.184 0.395,-0.383 0.6,-0.565 -3.294,-2.953 -6.33,-6.446 -9.038,-10.567 -14.012,-20.116 -16.041,-53.752 4.865,-76.332 0.157,-0.168 0.315,-0.337 0.475,-0.503 24.365,-25.233 70.731,-27.958 89.536,-27.958 69.787,0 118.801,36.624 136.643,98.627 5.308,-1.597 10.998,-2.457 16.971,-2.457 h 46.996 c 20.939,0 38.458,10.484 47.867,26.761 9.409,-16.277 26.929,-26.761 47.868,-26.761 h 46.559 c 19.808,0 36.255,8.773 46.038,22.931 18.225,-17.506 40.549,-27.718 64.938,-27.718 14.897,0 29.794,4.226 43.662,12.199 7.668,-4.801 16.926,-7.412 27.266,-7.412 h 37.859 c 28.961,0 51.328,20.08 54.794,47.782 28.167,-41.498 71.782,-47.782 95.342,-47.782 25.358,0 49.306,6.661 65.705,18.276 0.377,0.266 0.747,0.54 1.111,0.822 17.399,13.446 22.096,29.508 22.975,40.615 1.928,24.423 -12.723,42.845 -19.113,49.633" /></g><g
           transform="translate(266.1646,212.1366)"
           id="g24"><path
             id="path26"
             style="fill:#ffffff;fill-opacity:1;fill-rule:nonzero;stroke:none"
             d="m 0,0 c -13.927,-35.682 -49.172,-57.875 -87.467,-57.875 -56.135,0 -97.472,47.866 -97.472,116.186 0,73.976 47.431,121.842 108.786,121.842 45.69,0 77.894,-26.543 77.894,-60.92 0,-16.536 -7.399,-28.72 -26.109,-28.72 -14.363,0 -20.89,6.527 -25.676,13.488 -6.96,9.575 -14.796,16.536 -25.673,16.536 -20.887,0 -43.081,-23.933 -43.081,-59.181 0,-35.681 22.194,-59.615 48.736,-59.615 14.362,0 24.804,7.397 35.249,19.582 15.664,17.84 25.24,18.711 33.072,10.879 C 6.091,24.804 6.091,13.925 0,0" /></g><g
           transform="translate(412.816,293.5107)"
           id="g28"><path
             id="path30"
             style="fill:#ffffff;fill-opacity:1;fill-rule:nonzero;stroke:none"
             d="m 0,0 c 0,23.498 -11.314,39.163 -29.591,39.163 -21.758,0 -36.986,-22.193 -36.986,-58.31 0,-35.682 14.795,-60.486 36.986,-60.486 19.146,0 29.591,17.406 29.591,42.645 z m 32.2,93.993 c 19.149,0 31.768,-12.185 31.768,-31.332 v -78.327 c 0,-16.536 3.045,-37.858 7.832,-53.958 3.481,-11.314 5.658,-26.98 5.658,-38.729 v -3.916 c 0,-13.491 -8.704,-22.193 -22.195,-22.193 H 17.405 c -10.442,0 -14.795,5.222 -16.533,13.925 -2.177,7.832 -4.354,9.138 -9.576,3.045 -13.055,-13.489 -29.155,-21.757 -44.819,-21.757 -41.34,0 -79.199,49.173 -79.199,121.408 0,68.754 34.813,116.62 85.727,116.62 15.228,0 28.718,-4.35 40.032,-11.314 6.094,-3.481 12.185,-3.045 20.453,2.175 5.223,3.048 11.314,4.353 18.71,4.353" /></g><g
           transform="translate(515.9535,387.5032)"
           id="g32"><path
             id="path34"
             style="fill:#ffffff;fill-opacity:1;fill-rule:nonzero;stroke:none"
             d="m 0,0 c 8.701,0.87 13.49,6.093 13.49,13.925 v 19.582 c 0,19.147 13.488,31.331 32.637,31.331 19.145,0 31.331,-12.184 31.331,-31.331 V 13.925 C 77.458,5.657 83.113,0 91.381,0 H 104 c 16.536,0 26.981,-10.879 26.981,-27.85 0,-16.536 -10.445,-26.979 -26.981,-26.979 H 91.381 c -8.268,0 -13.923,-5.657 -13.923,-13.489 v -41.34 c 0,-35.682 3.478,-59.181 23.932,-59.181 12.619,0 32.2,9.574 47.432,-6.092 6.963,-7.397 19.145,-26.545 0,-41.34 -10.445,-7.397 -27.414,-12.184 -46.563,-12.184 -61.791,0 -88.769,47.432 -88.769,121.408 v 38.729 c 0,7.396 -4.789,12.618 -13.49,13.489 -14.359,1.305 -23.499,11.75 -23.499,26.979 v 0.871 C -23.499,-11.75 -14.359,-1.305 0,0" /></g><g
           transform="translate(752.6879,154.2619)"
           id="g36"><path
             id="path38"
             style="fill:#ffffff;fill-opacity:1;fill-rule:nonzero;stroke:none"
             d="m 0,0 c -42.209,0 -66.577,29.591 -66.577,72.236 v 42.209 c 0,16.536 -3.482,37.858 -8.268,53.958 -3.482,11.314 -5.659,26.98 -5.659,38.729 v 3.916 c 0,13.491 8.704,22.193 22.195,22.193 h 33.072 c 13.923,0 22.627,-8.702 22.627,-22.193 V 104.436 c 0,-23.932 9.137,-36.118 26.109,-36.118 21.759,0 42.645,19.583 43.081,51.349 0,10.443 -2.176,30.025 -7.399,46.995 -3.918,13.055 -6.091,28.721 -6.091,40.47 v 3.916 c 0,13.491 8.701,22.193 22.191,22.193 h 33.072 c 13.491,0 22.195,-8.702 22.195,-22.193 V 30.461 c 0,-72.236 -36.118,-121.844 -110.966,-121.844 -23.932,0 -53.523,5.223 -65.709,17.843 -10.877,11.748 -6.527,28.72 -1.74,35.247 12.621,20.016 54.83,6.527 77.022,6.527 26.108,0 35.249,18.712 36.989,48.302 0.436,8.268 -3.045,9.573 -9.572,4.35 C 40.468,7.398 20.886,0 0,0" /></g><g
           transform="translate(1055.5601,392.2896)"
           id="g40"><path
             id="path42"
             style="fill:#ffffff;fill-opacity:1;fill-rule:nonzero;stroke:none"
             d="m 0,0 c 43.514,0 68.318,-29.591 68.318,-72.236 v -42.209 c 0,-16.536 3.046,-37.858 8.268,-53.958 3.046,-11.314 5.655,-26.98 5.655,-38.729 v -3.916 c 0,-13.491 -8.701,-22.193 -22.627,-22.193 H 13.055 c -13.491,0 -22.195,8.702 -22.195,22.193 v 3.916 c 0,11.749 2.177,27.415 5.658,40.033 4.787,14.796 7.832,36.118 7.832,52.654 v 10.009 c 0,20.016 -12.185,36.118 -33.941,36.118 -23.063,0 -43.953,-19.582 -44.385,-51.349 0,-10.443 2.173,-30.025 6.96,-46.995 4.353,-13.055 6.527,-28.721 6.527,-40.47 v -3.916 c 0,-13.491 -8.701,-22.193 -22.191,-22.193 h -46.996 c -13.49,0 -22.194,8.702 -22.194,22.193 v 3.916 c 0,11.749 2.176,27.415 6.527,40.904 4.786,16.97 7.399,36.554 7.399,46.561 0,12.62 -3.482,33.943 -7.835,48.738 -3.915,12.618 -6.091,28.284 -6.091,40.034 v 3.916 c 0,13.49 8.704,22.193 22.194,22.193 h 34.377 c 12.183,0 17.841,-5.657 20.015,-20.453 1.74,-8.268 4.353,-9.138 9.576,-3.481 C -48.74,-10.443 -26.112,0 0,0" /></g><g
           transform="translate(1279.6727,293.5107)"
           id="g44"><path
             id="path46"
             style="fill:#ffffff;fill-opacity:1;fill-rule:nonzero;stroke:none"
             d="m 0,0 c 0,23.498 -11.314,39.163 -29.591,39.163 -21.758,0 -36.986,-22.193 -36.986,-58.31 0,-35.682 14.795,-60.486 36.986,-60.486 19.146,0 29.591,17.406 29.591,42.645 z m 32.2,93.993 c 19.149,0 31.768,-12.185 31.768,-31.332 v -78.327 c 0,-16.536 3.045,-37.858 7.832,-53.958 3.481,-11.314 5.658,-26.98 5.658,-38.729 v -3.916 c 0,-13.491 -8.704,-22.193 -22.194,-22.193 H 17.405 c -10.442,0 -14.795,5.222 -16.533,13.925 -2.177,7.832 -4.354,9.138 -9.576,3.045 -13.055,-13.489 -29.155,-21.757 -44.819,-21.757 -41.34,0 -79.199,49.173 -79.199,121.408 0,68.754 34.814,116.62 85.727,116.62 15.228,0 28.718,-4.35 40.032,-11.314 6.094,-3.481 12.185,-3.045 20.453,2.175 5.223,3.048 11.314,4.353 18.71,4.353" /></g><g
           transform="translate(1382.8136,387.5032)"
           id="g48"><path
             id="path50"
             style="fill:#ffffff;fill-opacity:1;fill-rule:nonzero;stroke:none"
             d="m 0,0 c 8.701,0.87 13.49,6.093 13.49,13.925 v 19.582 c 0,19.147 13.488,31.331 32.637,31.331 19.145,0 31.331,-12.184 31.331,-31.331 V 13.925 C 77.458,5.657 83.113,0 91.381,0 H 104 c 16.536,0 26.981,-10.879 26.981,-27.85 0,-16.536 -10.445,-26.979 -26.981,-26.979 H 91.381 c -8.268,0 -13.923,-5.657 -13.923,-13.489 v -41.34 c 0,-35.682 3.478,-59.181 23.932,-59.181 12.619,0 32.2,9.574 47.432,-6.092 6.963,-7.397 19.145,-26.545 0,-41.34 -10.445,-7.397 -27.414,-12.184 -46.563,-12.184 -61.791,0 -88.769,47.432 -88.769,121.408 v 38.729 c 0,7.396 -4.789,12.618 -13.49,13.489 -14.359,1.305 -23.499,11.75 -23.499,26.979 v 0.871 C -23.499,-11.75 -14.359,-1.305 0,0" /></g><g
           transform="translate(216.5693,666.9027)"
           id="g52"><path
             id="path54"
             style="fill:#a7a5a6;fill-opacity:1;fill-rule:nonzero;stroke:none"
             d="m 0,0 c 0,0 19.001,-57.004 67.744,-57.004 48.743,0 75.18,57.004 75.18,57.004 l 56.178,-84.267 c 0,0 39.655,34.579 145.402,34.698 153.891,0.173 247.019,-143.75 247.019,-143.75 0,0 27.263,57.004 -63.613,123.096 -90.877,66.092 -173.492,103.269 -173.492,200.755 0,97.485 78.484,139.619 161.099,133.01 66.705,-5.337 131.358,-71.049 131.358,-135.489 0,-64.439 -66.639,-100.958 -75.096,-14.562 -9.997,102.134 -152.921,120.309 -162.835,7.127 -9.914,-113.183 229.61,-134.699 226.365,-278.413 -1.159,-51.344 -17.349,-68.57 -39.655,-67.744 -22.306,0.826 -87.474,73.447 -203.233,67.744 -167.708,-8.261 -180.101,-88.123 -311.458,-88.123 -131.358,0 -153.664,58.382 -153.664,105.473 C -72.701,-93.355 0,0 0,0" /></g></g></g></g></svg>